<?xml version="1.0" encoding="UTF-8" standalone="no"?>
<!-- Created with Inkscape (http://www.inkscape.org/) -->

<svg
   xmlns:dc="http://purl.org/dc/elements/1.1/"
   xmlns:cc="http://creativecommons.org/ns#"
   xmlns:rdf="http://www.w3.org/1999/02/22-rdf-syntax-ns#"
   xmlns:svg="http://www.w3.org/2000/svg"
   xmlns="http://www.w3.org/2000/svg"
   xmlns:sodipodi="http://sodipodi.sourceforge.net/DTD/sodipodi-0.dtd"
   xmlns:inkscape="http://www.inkscape.org/namespaces/inkscape"
   width="512"
   height="512"
   id="svg2"
   version="1.1"
   inkscape:version="0.48.2 r9819"
   sodipodi:docname="ic_launcher.svg">
  <defs
     id="defs4" />
  <sodipodi:namedview
     id="base"
     pagecolor="#c0c0c0"
     bordercolor="#666666"
     borderopacity="1.0"
     inkscape:pageopacity="1"
     inkscape:pageshadow="2"
     inkscape:zoom="1.2351213"
     inkscape:cx="110.89342"
     inkscape:cy="292.93643"
     inkscape:document-units="px"
     inkscape:current-layer="layer1"
     showgrid="false"
     inkscape:window-width="1231"
     inkscape:window-height="845"
     inkscape:window-x="0"
     inkscape:window-y="0"
     inkscape:window-maximized="0"
     showguides="true"
     inkscape:guide-bbox="true"
     inkscape:snap-bbox="true"
     inkscape:bbox-paths="true"
     inkscape:bbox-nodes="true"
     inkscape:snap-bbox-edge-midpoints="true"
     inkscape:snap-bbox-midpoints="true"
     inkscape:object-paths="true"
     inkscape:snap-intersection-paths="true"
     inkscape:object-nodes="true"
     inkscape:snap-smooth-nodes="true"
     inkscape:snap-midpoints="true"
     inkscape:snap-object-midpoints="true"
     inkscape:snap-center="true"
     inkscape:snap-page="true"
     inkscape:snap-global="false" />
  <metadata
     id="metadata7">
    <rdf:RDF>
      <cc:Work
         rdf:about="">
        <dc:format>image/svg+xml</dc:format>
        <dc:type
           rdf:resource="http://purl.org/dc/dcmitype/StillImage" />
        <dc:title />
      </cc:Work>
    </rdf:RDF>
  </metadata>
  <g
     inkscape:label="Layer 1"
     inkscape:groupmode="layer"
     id="layer1"
     transform="translate(0,-540.36218)">
    <path
       style="fill:#ffffff;fill-opacity:1;stroke:none"
       d="m 369.62951,554.98777 c -23.43944,-0.57478 -44.54246,17.10659 -52.5625,37.375 -15.18306,-29.44472 -57.82401,-39.96066 -84.59375,-20 -10.32852,7.2127 -18.17401,18.47259 -21.84375,30.1875 -15.57941,-28.50395 -57.23048,-38.52765 -83.71875,-19.25 -23.14641,15.8235 -31.835505,49.83408 -17.46875,74.25 3.33211,5.97133 7.97066,11.16574 13.0625,15.53125 -6.22942,6.9675 -5.81581,17.6886 -13.625,23.4687 -11.060625,12.5376 -24.139595,25.7262 -26.500005,42.9376 0.51964,17.48775 15.48732,29.33535 24.906255,42.56235 4.91395,6.1411 14.45442,12.3384 10.84375,21.3438 -7.88308,23.9894 -16.37309,50.6869 -38.125005,65.8125 -11.9947,5.8483 -21.92034,15.3739 -27.875,27.3437 -8.9366,15.6573 -11.96549,35.2638 -26.59799,47.1284 -12.71978,9.7202 -24.4283508,25.90508 -19.5582608,42.74658 4.4239698,15.64095 20.0105108,23.82465 28.5937508,36.65635 13.30552,14.3969 35.83747,17.8848 53.9375,11.8437 11.767515,-3.9037 20.456945,-15.183 20.687505,-27.6562 12.56055,11.6167 31.67802,14.7272 48.03125,11.0625 6.88197,-2.1454 13.20259,-6.3927 17.53125,-12.125 15.28741,11.5704 39.87428,15.2643 54.4375,0.5937 3.71159,-3.1335 4.77548,-8.80735 8.125,-11.71875 17.62241,-7.2725 24.97073,-29.19308 19.6875,-46.71868 -0.23804,-2.4798 -0.79036,-5.9129 2.78125,-3.8438 5.27888,0.4117 4.7457,6.3713 7.65625,9.4688 12.42738,19.31208 38.82747,30.83708 60.71875,21.40618 15.97091,-8.02368 21.38697,-30.33868 11.5,-45.06248 -4.03078,-7.8609 -12.86142,-15.3258 -10.84375,-24.8125 2.30836,-3.7062 6.42899,-8.3844 9.28125,-9.6875 2.04085,10.4379 8.77296,19.4012 17.03125,25.75 12.32269,19.0619 35.53838,33.437 58.75,28.0313 17.52357,-4.7131 27.97693,-26.4545 19.59375,-42.8438 -2.72176,-7.2459 -10.59198,-12.9904 -9.90625,-21.1562 4.73623,-12.5064 17.90326,-18.0658 27.0625,-26.8438 18.34019,-14.8593 40.41133,-27.6166 51.4375,-49.125 9.13371,-18.6976 6.55195,-45.5793 -12.5,-56.9375 -16.69869,-9.6128 -36.86898,-9.0331 -55.34375,-12.15625 -2.53446,-0.7476 -7.99471,0.41435 -5.53125,-4 -0.0441,-3.8343 0.14377,-7.1832 4.40625,-4.8437 11.8957,2.9357 26.80131,1.2972 33.8125,-9.9375 15.206,-20.2077 20.74882,-45.81293 33.34375,-67.5625 5.74091,-11.58905 7.77765,-28.17361 -3.15625,-37.375 -18.98596,-17.65083 -54.41142,-15.02551 -68.09375,8 -5.22531,7.77066 -6.54728,17.48195 -5.59375,26.5625 -0.97494,0.0778 -3.00026,-2.59863 -4.65625,-2.8125 -2.51945,-0.62914 -3.33028,-1.85231 -1,-3.625 17.5039,-23.65373 13.18866,-61.7738 -12.03125,-78.4375 -10.27144,-7.63068 -23.18153,-11.86615 -36.09375,-11.53125 z m -49.59375,83.03125 c 3.32422,5.9045 7.83336,11.16249 12.8125,15.78125 -7.07832,2.10307 -14.79445,2.9807 -21.5625,5.40625 -1.47642,-1.34074 -3.80426,-3.01548 -1,-4.4375 4.25169,-5.08783 7.30268,-11.08042 9.46875,-17.3125 l 0.28125,0.5625 z m -104.34375,9.09375 c 3.4181,5.79802 7.80848,10.89039 13.1875,14.8125 -3.79398,5.9548 -9.64843,10.02957 -16,12.625 -1.60982,1.92617 -2.81333,2.98998 -3.875,0.0937 -1.49631,-2.9755 -8.41839,-5.7513 -4.34375,-8.96875 4.75293,-5.91777 8.08147,-12.79943 10.21875,-20.03125 l 0.48406,0.87503 0.32844,0.59372 z"
       id="path3116-9-7-3"
       inkscape:connector-curvature="0" />
    <g
       id="g3802">
      <path
         sodipodi:nodetypes="zsssssccsz"
         inkscape:connector-curvature="0"
         id="path3116-9-7"
         d="m 174.0898,693.67768 c -5.59399,-2.80782 -18.96129,-2.28104 -22.9348,12.63459 -3.97352,14.91562 -5.21066,49.66594 -3.98126,55.23806 1.22937,5.5721 62.44551,19.27057 66.3534,20.87815 3.90791,1.60759 9.73123,3.66534 16.54888,3.43007 6.81765,-0.23528 7.12618,-16.91164 6.26666,-22.41627 -0.98878,-6.33239 -3.99338,-11.69151 -12.39726,-16.30364 -10.48348,-5.56409 -19.25777,7.42302 -35.62575,-6.53923 -2.41523,-2.33506 -8.23946,-11.85855 -0.97083,-25.0809 7.26863,-13.22235 -7.66503,-19.033 -13.25904,-21.84083 z"
         style="fill:#0080ff;fill-opacity:1;stroke:#000000;stroke-width:12;stroke-linecap:butt;stroke-linejoin:miter;stroke-miterlimit:4;stroke-opacity:1;stroke-dasharray:none" />
      <path
         sodipodi:nodetypes="csssssssssszzzc"
         inkscape:connector-curvature="0"
         id="path3114"
         d="m 140.35422,800.0338 c -19.29503,65.45851 -32.65242,70.3276 -37.47618,77.3411 -4.823757,7.0134 -12.694384,8.36974 -22.3419,16.16244 -9.647515,7.7927 -16.079192,23.72447 -23.314828,41.64767 -7.235637,17.9232 -13.283057,19.30803 -20.518694,26.32143 -7.235636,7.0135 -12.017427,11.05724 -11.811659,19.21196 0.188198,7.45842 10.618647,13.95138 15.293423,18.36966 2.337388,2.20924 8.858669,13.02114 12.326055,15.00004 11.645457,6.6466 33.286408,6.3191 35.578149,-1.7664 3.858244,-13.61234 -4.203028,-14.48251 -6.334031,-20.10323 -3.642072,-9.60635 -9.840192,-15.70155 -9.712975,-18.81863 0.254221,-6.22891 43.43788,-60.26795 49.86956,-63.385 6.43168,-3.11705 36.4101,-39.9893 42.98844,-48.75891 6.57834,-8.76961 33.66354,-42.84373 25.16432,-59.19093 -8.49922,-16.3472 -49.70968,-2.0312 -49.70968,-2.0312 z"
         style="fill:#0080ff;fill-opacity:1;stroke:#000000;stroke-width:12;stroke-linecap:butt;stroke-linejoin:round;stroke-miterlimit:4;stroke-opacity:1;stroke-dasharray:none" />
      <path
         transform="matrix(0.70475413,0,0,0.70373299,75.876738,568.17142)"
         d="m 172.14806,89.636734 a 53.045624,52.044762 0 1 1 -106.091244,0 53.045624,52.044762 0 1 1 106.091244,0 z"
         sodipodi:ry="52.044762"
         sodipodi:rx="53.045624"
         sodipodi:cy="89.636734"
         sodipodi:cx="119.10244"
         id="path3110"
         style="fill:#0080ff;fill-opacity:1;fill-rule:evenodd;stroke:#000000;stroke-width:17.03956412999999870;stroke-miterlimit:4;stroke-opacity:1;stroke-dasharray:none"
         sodipodi:type="arc" />
      <path
         sodipodi:nodetypes="zsssssssszzssssscsz"
         inkscape:connector-curvature="0"
         id="path3112"
         d="m 174.64574,676.72792 c -11.25544,-0.77927 -43.41382,0.77927 -39.39402,22.59878 4.01979,21.81952 10.78397,40.52197 12.39189,54.54879 1.60793,14.02684 -2.74438,4.67562 -7.56814,35.06709 -4.82375,30.39146 8.0396,34.28781 28.94255,41.30122 20.90295,7.01342 44.48745,19.86352 45.29141,25.3184 0.80396,5.45488 -19.04392,12.19902 -22.25977,24.66732 -3.21583,12.4683 -10.66055,38.45587 -21.11203,47.80707 -10.45147,9.3512 -19.82075,10.68625 -21.07155,23.96912 -1.42339,15.11572 17.40592,13.68882 20.49026,15.48956 3.08433,1.80073 4.50984,14.5888 9.18684,18.08404 4.67701,3.49523 18.91809,16.15549 30.81404,11.23038 16.71942,-6.9221 -1.14465,-25.14554 -5.12147,-33.63216 -4.24724,-9.06371 -7.66314,-21.88918 -0.4275,-30.46118 7.23563,-8.5719 38.72184,-60.50783 46.76144,-70.63831 8.0396,-10.13048 8.67459,-25.94653 -0.16897,-32.95995 -8.84355,-7.01341 -58.17112,-52.44208 -58.17112,-52.44208 0,0 8.45372,-38.64678 7.64976,-62.8041 -0.80396,-24.15732 -14.97818,-36.36472 -26.23362,-37.14399 z"
         style="fill:#0080ff;fill-opacity:1;stroke:#000000;stroke-width:12;stroke-linecap:butt;stroke-linejoin:miter;stroke-miterlimit:4;stroke-opacity:1;stroke-dasharray:none" />
      <path
         sodipodi:nodetypes="zsssssccsz"
         inkscape:connector-curvature="0"
         id="path3116-9"
         d="m 162.97973,700.41008 c -2.92545,-5.53338 -14.11629,-12.86328 -26.00951,-3.02377 -11.89322,9.8395 -33.07097,37.41881 -35.30413,42.6698 -2.233161,5.25097 39.66441,51.93778 41.91353,55.51512 2.24913,3.57736 5.7967,8.63306 11.48491,12.39869 5.68822,3.76562 15.61902,-9.63495 18.11419,-14.6163 2.87038,-5.73042 3.53434,-11.83837 -0.63194,-20.47197 -5.30716,-10.61586 -19.9903,-5.13329 -25.21465,-26.0034 -0.61138,-3.30334 0.17369,-14.43897 13.76731,-20.98703 13.59362,-6.54806 4.80576,-19.94774 1.88029,-25.48114 z"
         style="fill:#0080ff;fill-opacity:1;stroke:#000000;stroke-width:12;stroke-linecap:butt;stroke-linejoin:miter;stroke-miterlimit:4;stroke-opacity:1;stroke-dasharray:none" />
    </g>
    <g
       id="g3814">
      <path
         sodipodi:nodetypes="zsssssccsz"
         inkscape:connector-curvature="0"
         id="path3116-9-7-39"
         d="m 285.05968,693.35953 c -5.43727,3.10042 -12.40651,14.51937 -2.19268,26.09272 10.21382,11.57335 38.45455,31.8607 43.7741,33.92524 5.31952,2.06455 50.64628,-41.30074 54.15007,-43.66281 3.5038,-2.36209 8.44379,-6.0691 12.02607,-11.87452 3.58229,-5.80542 -10.1282,-15.30377 -15.18659,-17.63879 -5.81907,-2.68615 -11.94508,-3.15497 -20.44141,1.28455 -10.44119,5.64304 -4.4931,20.14386 -25.18596,26.03118 -3.28217,0.71643 -14.43717,0.28691 -21.41546,-13.09094 -6.97828,-13.37785 -20.09087,-4.1671 -25.52814,-1.06663 z"
         style="fill:#80c0ff;fill-opacity:1;stroke:#000000;stroke-width:12;stroke-linecap:butt;stroke-linejoin:miter;stroke-miterlimit:4;stroke-opacity:1;stroke-dasharray:none" />
      <path
         sodipodi:nodetypes="csssssssssszzzc"
         inkscape:connector-curvature="0"
         id="path3114-0"
         d="m 238.97057,786.48758 c -25.18471,63.4259 -38.9305,67.05645 -44.37382,73.60077 -5.4433,6.54422 -13.40483,7.17707 -23.72287,14.05739 -10.31803,6.88033 -18.17595,22.15911 -27.0161,39.34769 -8.84015,17.18858 -14.98867,18.01608 -22.83381,24.34033 -7.84514,6.32435 -12.9758,9.91511 -13.51464,18.05462 -0.49282,7.4445 4.70139,16.26965 8.9537,21.0959 2.12616,2.41315 2.96444,15.12487 6.2369,17.41167 10.99072,7.68115 32.57135,9.32875 35.59096,1.4859 5.08367,-13.20363 -5.87438,-14.41978 -7.48386,-20.21143 -2.75075,-9.89849 2.48351,-19.60494 4.32389,-22.76977 3.13386,-5.38913 48.75354,-56.05504 55.4427,-58.5725 6.68916,-2.51746 39.90554,-36.50188 47.2563,-44.63497 7.35075,-8.13307 37.43077,-39.5949 30.4579,-56.64913 -6.97286,-17.05424 -49.31725,-6.55647 -49.31725,-6.55647 z"
         style="fill:#80c0ff;fill-opacity:1;stroke:#000000;stroke-width:12;stroke-linecap:butt;stroke-linejoin:round;stroke-miterlimit:4;stroke-opacity:1;stroke-dasharray:none" />
      <path
         transform="matrix(0.70475413,0,0,0.70373299,181.73972,556.94084)"
         d="m 172.14806,89.636734 a 53.045624,52.044762 0 1 1 -106.091244,0 53.045624,52.044762 0 1 1 106.091244,0 z"
         sodipodi:ry="52.044762"
         sodipodi:rx="53.045624"
         sodipodi:cy="89.636734"
         sodipodi:cx="119.10244"
         id="path3110-5"
         style="fill:#80c0ff;fill-opacity:1;fill-rule:evenodd;stroke:#000000;stroke-width:17.03956412999999870;stroke-miterlimit:4;stroke-opacity:1;stroke-dasharray:none"
         sodipodi:type="arc" />
      <path
         sodipodi:nodetypes="zsssscssszzssssscsz"
         inkscape:connector-curvature="0"
         id="path3112-22"
         d="m 280.50872,665.49734 c -11.25544,-0.77927 -43.41382,0.77927 -39.39402,22.59878 4.01979,21.81952 10.78397,40.52197 12.39189,54.54879 1.60793,14.02684 -2.74438,4.67562 -7.56814,35.06709 -4.82375,30.39146 8.0396,34.28781 28.94255,41.30122 20.90295,7.01342 51.36368,7.10157 51.36368,7.10157 0,0 -21.47283,3.29301 -24.68868,15.76131 -3.21583,12.4683 -13.08946,39.2655 -23.54094,48.6167 -10.45147,9.3512 -19.82075,10.68625 -21.07155,23.96912 -1.42339,15.11572 17.40592,13.68882 20.49026,15.48956 3.08433,1.80073 4.50984,14.5888 9.18684,18.08404 4.67701,3.49523 18.91809,16.15548 30.81404,11.23038 16.71942,-6.9221 -1.14465,-25.14554 -5.12147,-33.63216 -4.24724,-9.06371 -7.66314,-21.88918 -0.4275,-30.46118 7.23563,-8.5719 49.24712,-51.60182 57.28672,-61.7323 8.0396,-10.13048 9.48423,-30.80435 0.64067,-37.81777 -8.84355,-7.01341 -70.72049,-30.17706 -70.72049,-30.17706 0,0 8.45372,-38.64678 7.64976,-62.8041 -0.80396,-24.15732 -14.97818,-36.36472 -26.23362,-37.14399 z"
         style="fill:#80c0ff;fill-opacity:1;stroke:#000000;stroke-width:12;stroke-linecap:butt;stroke-linejoin:round;stroke-miterlimit:4;stroke-opacity:1;stroke-dasharray:none" />
      <path
         sodipodi:nodetypes="zsssssccsz"
         inkscape:connector-curvature="0"
         id="path3116-9-73"
         d="m 274.28158,689.79074 c -0.97059,-6.1834 -9.17562,-16.74938 -23.61903,-11.30396 -14.4434,5.44542 -43.42765,24.65553 -47.24458,28.89711 -3.81692,4.24155 20.6544,62.00157 21.62032,66.11532 0.96592,4.11376 2.68,10.04733 6.83759,15.45567 4.15761,5.40833 17.90099,-4.04237 21.87821,-7.94384 4.57527,-4.48816 7.18621,-10.04972 6.04849,-19.56826 -1.57326,-11.76381 -17.241,-11.34507 -15.4069,-32.78082 0.49416,-3.32291 4.85188,-13.60049 19.83502,-15.38072 14.98314,-1.78021 11.02148,-17.30706 10.05088,-23.4905 z"
         style="fill:#80c0ff;fill-opacity:1;stroke:#000000;stroke-width:12;stroke-linecap:butt;stroke-linejoin:miter;stroke-miterlimit:4;stroke-opacity:1;stroke-dasharray:none" />
    </g>
    <g
       id="g3838"
       transform="translate(-84.654456,-15.438174)">
      <path
         sodipodi:nodetypes="zsssssccsz"
         inkscape:connector-curvature="0"
         id="path3116-9-7-39-9"
         d="m 469.94893,692.44123 c -3.6683,5.0715 -5.29121,18.35038 8.79452,24.66362 14.08572,6.31324 48.18829,13.10518 53.88542,12.78494 5.69711,-0.32022 29.03194,-58.54864 31.2452,-62.14828 2.21327,-3.59966 5.17794,-9.01778 6.03864,-15.78497 0.8607,-6.7672 -15.55052,-9.74512 -21.12173,-9.77915 -6.40902,-0.0391 -12.1805,2.06747 -18.0802,9.6233 -7.17273,9.45592 4.23983,20.19868 -12.16578,34.11669 -2.69206,2.00967 -13.02606,6.23186 -24.91217,-3.06243 -11.88611,-9.29428 -20.01563,4.51474 -23.6839,9.58628 z"
         style="fill:#ffffff;fill-opacity:1;stroke:#000000;stroke-width:12;stroke-linecap:butt;stroke-linejoin:miter;stroke-miterlimit:4;stroke-opacity:1;stroke-dasharray:none" />
      <path
         sodipodi:nodetypes="csssssccsszzzc"
         inkscape:connector-curvature="0"
         id="path3114-0-3"
         d="m 435.53988,790.38147 c -33.97857,59.18252 -48.10179,60.81422 -54.42334,66.51473 -6.32153,5.70041 -14.29188,5.19057 -25.48621,10.52796 -11.19432,5.33739 -21.15228,19.33836 -32.35496,35.08941 -11.20268,15.75104 -17.40636,15.69261 -26.07375,20.83253 -8.6674,5.14002 -14.25799,7.96181 -15.95292,15.94111 -1.5502,7.29797 2.33139,16.77406 5.85141,22.15777 7.43572,22.5461 8.14033,32.70645 20.8908,32.7698 20.08543,-0.12159 14.05564,-23.20685 13.28917,-29.16891 -1.30996,-10.18973 5.25595,-19.04984 7.52915,-21.91963 3.87088,-4.88673 56.25425,-48.52355 63.23421,-50.06062 6.97996,-1.53707 44.70633,-30.43325 53.14254,-37.43405 8.4362,-7.00078 42.69831,-33.8478 38.23066,-51.72258 -4.46764,-17.87478 -47.87676,-13.52752 -47.87676,-13.52752 z"
         style="fill:#ffffff;fill-opacity:1;stroke:#000000;stroke-width:12;stroke-linecap:butt;stroke-linejoin:round;stroke-miterlimit:4;stroke-opacity:1;stroke-dasharray:none" />
      <path
         transform="matrix(0.70475413,0,0,0.70373299,371.74059,565.29851)"
         d="m 172.14806,89.636734 c 0,28.743526 -23.74933,52.044766 -53.04562,52.044766 -29.296289,0 -53.045624,-23.30124 -53.045624,-52.044766 0,-28.743528 23.749335,-52.044762 53.045624,-52.044762 29.29629,0 53.04562,23.301234 53.04562,52.044762 z"
         sodipodi:ry="52.044762"
         sodipodi:rx="53.045624"
         sodipodi:cy="89.636734"
         sodipodi:cx="119.10244"
         id="path3110-5-8"
         style="fill:#ffffff;fill-opacity:1;fill-rule:evenodd;stroke:#000000;stroke-width:17.03956413;stroke-miterlimit:4;stroke-opacity:1;stroke-dasharray:none"
         sodipodi:type="arc" />
      <path
         sodipodi:nodetypes="zsssscssszzssssscsz"
         inkscape:connector-curvature="0"
         id="path3112-22-0"
         d="m 470.50959,673.85501 c -11.25544,-0.77927 -43.41382,0.77927 -39.39402,22.59878 4.01979,21.81952 10.78397,40.52197 12.39189,54.54879 1.60793,14.02684 -2.74438,4.67562 -7.56814,35.06709 -4.82375,30.39146 8.0396,34.28781 28.94255,41.30122 20.90295,7.01342 57.03114,-9.90081 57.03114,-9.90081 0,0 -26.33065,4.91228 -29.5465,17.38058 -3.21583,12.4683 -18.75692,32.78841 -29.2084,42.13961 -10.45147,9.3512 -19.82075,10.68625 -21.07155,23.96912 -1.42339,15.11572 6.88064,18.54664 9.96498,20.34738 3.08433,1.80073 6.12911,10.54061 10.80611,14.03585 4.67701,3.49523 18.91809,16.15548 30.81404,11.23038 16.71942,-6.9221 -1.14465,-25.14554 -5.12147,-33.63216 -4.24724,-9.06371 1.24287,-22.69881 8.47851,-31.27081 7.23563,-8.5719 59.7724,-46.744 67.812,-56.87448 8.0396,-10.13048 9.48423,-30.80435 0.64067,-37.81777 -8.84355,-7.01341 -76.38795,-13.17468 -76.38795,-13.17468 0,0 8.45372,-38.64678 7.64976,-62.8041 -0.80396,-24.15732 -14.97818,-36.36472 -26.23362,-37.14399 z"
         style="fill:#ffffff;fill-opacity:1;stroke:#000000;stroke-width:12;stroke-linecap:butt;stroke-linejoin:round;stroke-miterlimit:4;stroke-opacity:1;stroke-dasharray:none" />
      <path
         sodipodi:nodetypes="zsssssccsz"
         inkscape:connector-curvature="0"
         id="path3116-9-73-2"
         d="m 458.89262,705.06065 c 0.93488,-6.1889 -3.71079,-18.73402 -19.12335,-17.88674 -15.41254,0.84728 -48.83371,10.44628 -53.74999,13.34285 -4.91626,2.89655 1.04196,65.34304 0.72535,69.5568 -0.31661,4.21376 -0.46728,10.38811 1.87037,16.79678 2.33766,6.40868 18.28775,1.53109 23.25456,-0.9929 5.71367,-2.90355 9.87701,-7.4218 11.656,-16.84158 2.03919,-11.69205 -13.0285,-16.0069 -4.8297,-35.89747 1.47107,-3.02025 8.71922,-11.5104 23.5437,-8.69993 14.82446,2.81048 15.71818,-13.18887 16.65306,-19.37781 z"
         style="fill:#ffffff;fill-opacity:1;stroke:#000000;stroke-width:12;stroke-linecap:butt;stroke-linejoin:miter;stroke-miterlimit:4;stroke-opacity:1;stroke-dasharray:none" />
    </g>
  </g>
</svg>
