<?xml version="1.0" encoding="UTF-8" standalone="no"?>
<!-- Created with Inkscape (http://www.inkscape.org/) -->

<svg
   xmlns:dc="http://purl.org/dc/elements/1.1/"
   xmlns:cc="http://creativecommons.org/ns#"
   xmlns:rdf="http://www.w3.org/1999/02/22-rdf-syntax-ns#"
   xmlns:svg="http://www.w3.org/2000/svg"
   xmlns="http://www.w3.org/2000/svg"
   xmlns:sodipodi="http://sodipodi.sourceforge.net/DTD/sodipodi-0.dtd"
   xmlns:inkscape="http://www.inkscape.org/namespaces/inkscape"
   width="512"
   height="512"
   id="svg2"
   version="1.1"
   inkscape:version="0.48.2 r9819"
   sodipodi:docname="ic_launcher.svg.2013_06_30_00_38_02.0.svg">
  <defs
     id="defs4" />
  <sodipodi:namedview
     id="base"
     pagecolor="#c0c0c0"
     bordercolor="#666666"
     borderopacity="1.0"
     inkscape:pageopacity="1"
     inkscape:pageshadow="2"
     inkscape:zoom="0.99913992"
     inkscape:cx="257.16135"
     inkscape:cy="256.07739"
     inkscape:document-units="px"
     inkscape:current-layer="layer1"
     showgrid="false"
     inkscape:window-width="1231"
     inkscape:window-height="845"
     inkscape:window-x="0"
     inkscape:window-y="0"
     inkscape:window-maximized="0"
     showguides="true"
     inkscape:guide-bbox="true"
     inkscape:snap-bbox="true"
     inkscape:bbox-paths="true"
     inkscape:bbox-nodes="true"
     inkscape:snap-bbox-edge-midpoints="true"
     inkscape:snap-bbox-midpoints="true"
     inkscape:object-paths="true"
     inkscape:snap-intersection-paths="true"
     inkscape:object-nodes="true"
     inkscape:snap-smooth-nodes="true"
     inkscape:snap-midpoints="true"
     inkscape:snap-object-midpoints="true"
     inkscape:snap-center="true"
     inkscape:snap-page="true"
     inkscape:snap-global="false" />
  <metadata
     id="metadata7">
    <rdf:RDF>
      <cc:Work
         rdf:about="">
        <dc:format>image/svg+xml</dc:format>
        <dc:type
           rdf:resource="http://purl.org/dc/dcmitype/StillImage" />
        <dc:title />
      </cc:Work>
    </rdf:RDF>
  </metadata>
  <g
     inkscape:label="Layer 1"
     inkscape:groupmode="layer"
     id="layer1"
     transform="translate(0,-540.36218)">
    <path
       style="font-size:medium;font-style:normal;font-variant:normal;font-weight:normal;font-stretch:normal;text-indent:0;text-align:start;text-decoration:none;line-height:normal;letter-spacing:normal;word-spacing:normal;text-transform:none;direction:ltr;block-progression:tb;writing-mode:lr-tb;text-anchor:start;baseline-shift:baseline;color:#000000;fill:#ffffff;fill-opacity:1;stroke:none;stroke-width:16;marker:none;visibility:visible;display:inline;overflow:visible;enable-background:accumulate;font-family:Sans;-inkscape-font-specification:Sans"
       d="m 439.87388,884.4369 c -15.75067,-1.45017 -31.27994,6.605 -39.90625,19.625 -11.7739,15.78414 -10.41546,36.53816 -8.6875,55.125 2.90776,20.15765 2.59839,40.59155 4.78125,60.7812 1.23725,8.2229 3.51905,18.3106 12.71875,20.7812 11.97382,4.5251 28.48497,-4.2947 27.00852,-18.1873 -0.066,-29.70875 -5.71149,-59.21545 -5.0897,-88.89684 0.17275,-4.83859 3.39905,-11.48647 9.29993,-9.32201 2.29862,-0.044 3.78826,1.26213 2.625,3.5625 -1.23052,14.51896 16.52931,27.37504 29.59375,19.28125 12.56027,-6.924 13.14694,-24.01817 8.3125,-35.9375 -5.96401,-16.43432 -23.26652,-27.6536 -40.65625,-26.8125 z"
       id="path3012-7"
       inkscape:connector-curvature="0" />
    <g
       id="g4190"
       transform="translate(-62.053371,-198.17045)">
      <g
         id="g4214">
        <path
           style="font-size:medium;font-style:normal;font-variant:normal;font-weight:normal;font-stretch:normal;text-indent:0;text-align:start;text-decoration:none;line-height:normal;letter-spacing:normal;word-spacing:normal;text-transform:none;direction:ltr;block-progression:tb;writing-mode:lr-tb;text-anchor:start;baseline-shift:baseline;color:#000000;fill:#ffffff;fill-opacity:1;stroke:none;stroke-width:16;marker:none;visibility:visible;display:inline;overflow:visible;enable-background:accumulate;font-family:Sans;-inkscape-font-specification:Sans"
           d="m 400.456,742.62818 c -28.6514,1.05433 -57.11123,18.75584 -67.125,46.15625 -6.70034,15.05258 -10.47797,31.36602 -11.4375,47.8125 -1.905,-9.81704 -2.44856,-19.93115 -3.875,-29.65625 -5.45725,-19.80264 -29.34225,-33.52659 -48.71875,-24.25 -19.16856,8.21749 -27.37637,32.45654 -20.3125,51.5 1.48638,16.73406 1.76269,36.6286 15.625,48.25 -5.00016,14.60338 3.2765,30.48258 13.875,40.28125 9.91518,13.75077 20.51581,29.89401 38.03125,34.3125 -0.38332,5.21821 6.71324,9.6315 3.0625,14.25 -1.59693,1.80802 -1.55139,7.22351 -3.5,7.09375 -14.62126,-10.15511 -34.22845,-9.77384 -50.8125,-5.34375 -6.0889,-2.49583 -9.89272,-8.47904 -15.64116,-11.63469 -12.6128,-9.55472 -30.71111,-16.48819 -45.73384,-8.14656 -3.80124,1.73755 -6.73032,6.7207 -11.125,4 -18.95625,-4.39737 -38.64109,8.47675 -44.38904,26.51029 -5.01698,9.97945 -10.06761,20.61363 -15.48596,29.95843 -11.50589,-11.5663 -30.01174,-18.93979 -45.468753,-10.9375 -20.30404,9.3949 -28.01121,40.0944 -11.625,56.5625 9.95051,8.8119 19.79175,19.2301 31.687503,24.875 -12.401583,10.0706 -16.312793,26.6786 -19.718753,41.5625 -3.03827,15.2835 2.7554,32.9676 17.312503,39.9688 18.76523,10.0378 46.04937,0.9278 52,-20.3126 0.64019,-4.6697 2.15947,-7.6322 6.37601,-3.8302 14.48523,7.4299 28.2369,18.4838 44.93649,19.7678 9.08015,0.4888 17.89486,-3.7454 24.9375,-8.3126 17.46904,5.6658 35.20412,-5.0764 46.9375,-17.3437 4.08136,-4.5975 9.72147,-8.4172 16.09375,-7.0937 24.03195,-1.8111 48.57639,-18.5867 52.53125,-43.4688 0.77135,-4.2168 0.84951,-8.5953 0.34375,-12.8438 14.69179,-5.0703 28.15883,-13.1079 40.75,-22.1874 17.0718,9.5367 42.54331,4.9086 51.875,-12.5 1.79729,2.6568 3.87414,5.5028 1.875,8.6562 -2.22147,14.0782 3.62642,27.9835 2.15625,42.125 1.12997,19.8566 17.93174,40.2273 39.15625,38 18.67238,-1.2022 35.7863,-18.128 33.65625,-37.4688 -0.30167,-15.783 -2.63961,-31.5648 -4.75,-47.125 -2.01731,-5.9599 -7.6005,-11.0963 -5.04376,-17.7436 1.43216,-16.7433 -3.13246,-33.04733 -3.83124,-49.60007 -3.60451,-14.97461 -17.34994,-27.20912 -32.5,-28.46875 -1.77857,-3.76899 -5.99449,-6.61807 -8.15625,-9.53125 2.0238,-4.99733 6.33527,-7.86346 11.0625,-9.6875 24.01446,-15.10992 33.68491,-44.32222 36.80105,-71.33321 4.12537,-27.6435 3.80837,-59.3705 -14.67605,-82.01054 -18.61077,-21.63276 -48.7613,-28.51098 -76.24793,-30.31438 -6.95694,-0.43486 -13.9388,-0.71227 -20.90832,-0.49812 z m -77.96875,119.59375 c 1.20842,4.02809 -1.73137,0.85979 -0.0625,-0.6875 l 0.0625,0.6875 z m -112.25,160.34377 c 5.09567,3.9197 11.22055,6.6287 15.71875,11.3125 -1.82244,15.9808 -0.74388,32.9436 7.25,47.1874 -4.35625,2.9568 -8.31595,6.5267 -12.09375,10.1876 -12.97431,-7.0435 -26.20326,-13.7297 -38.9375,-21 13.52684,-13.0292 16.96108,-32.8417 27.6875,-47.9688 l 0.375,0.2813 z"
           id="path2998-8"
           inkscape:connector-curvature="0" />
      </g>
    </g>
    <path
       style="font-size:medium;font-style:normal;font-variant:normal;font-weight:normal;font-stretch:normal;text-indent:0;text-align:start;text-decoration:none;line-height:normal;letter-spacing:normal;word-spacing:normal;text-transform:none;direction:ltr;block-progression:tb;writing-mode:lr-tb;text-anchor:start;baseline-shift:baseline;color:#000000;fill:#ffffff;fill-opacity:1;stroke:#000000;stroke-width:16;stroke-miterlimit:4;stroke-opacity:1;stroke-dasharray:none;marker:none;visibility:visible;display:inline;overflow:visible;enable-background:accumulate;font-family:Sans;-inkscape-font-specification:Sans"
       d="m 42.209528,822.31472 a 16.0016,16.0016 0 0 0 -10.1875,28.4375 l 18.25,15.1875 a 16.0016,16.0016 0 1 0 20.46875,-24.5625 l -18.25,-15.21875 a 16.0016,16.0016 0 0 0 -10.28125,-3.84375 z"
       id="path2998"
       inkscape:connector-curvature="0" />
    <path
       style="font-size:medium;font-style:normal;font-variant:normal;font-weight:normal;font-stretch:normal;text-indent:0;text-align:start;text-decoration:none;line-height:normal;letter-spacing:normal;word-spacing:normal;text-transform:none;direction:ltr;block-progression:tb;writing-mode:lr-tb;text-anchor:start;baseline-shift:baseline;color:#000000;fill:#ffffff;fill-opacity:1;stroke:#000000;stroke-width:16;stroke-miterlimit:4;stroke-opacity:1;stroke-dasharray:none;marker:none;visibility:visible;display:inline;overflow:visible;enable-background:accumulate;font-family:Sans;-inkscape-font-specification:Sans"
       d="m 68.942794,898.98019 a 16.0016,16.0016 0 0 0 -15.25,11.28125 l -6.875,21.21875 a 16.0016,16.0016 0 1 0 30.4375,9.875 l 6.875,-21.21875 a 16.0016,16.0016 0 0 0 -15.1875,-21.15625 z"
       id="path3004"
       inkscape:connector-curvature="0" />
    <path
       style="font-size:medium;font-style:normal;font-variant:normal;font-weight:normal;font-stretch:normal;text-indent:0;text-align:start;text-decoration:none;line-height:normal;letter-spacing:normal;word-spacing:normal;text-transform:none;direction:ltr;block-progression:tb;writing-mode:lr-tb;text-anchor:start;baseline-shift:baseline;color:#000000;fill:#ffffff;fill-opacity:1;stroke:#000000;stroke-width:16;marker:none;visibility:visible;display:inline;overflow:visible;enable-background:accumulate;font-family:Sans;-inkscape-font-specification:Sans;stroke-opacity:1;stroke-miterlimit:4;stroke-dasharray:none"
       d="m 160.28125,772.04968 a 16.0016,16.0016 0 0 0 -9.53125,29.1875 l 48.53125,34.40625 a 16.0016,16.0016 0 1 0 18.5,-26.09375 L 169.25,775.14343 a 16.0016,16.0016 0 0 0 -8.96875,-3.09375 z"
       id="path2994"
       inkscape:connector-curvature="0" />
    <path
       style="font-size:medium;font-style:normal;font-variant:normal;font-weight:normal;font-stretch:normal;text-indent:0;text-align:start;text-decoration:none;line-height:normal;letter-spacing:normal;word-spacing:normal;text-transform:none;direction:ltr;block-progression:tb;writing-mode:lr-tb;text-anchor:start;baseline-shift:baseline;color:#000000;fill:#ffffff;fill-opacity:1;stroke:#000000;stroke-width:16;stroke-miterlimit:4;stroke-opacity:1;stroke-dasharray:none;marker:none;visibility:visible;display:inline;overflow:visible;enable-background:accumulate;font-family:Sans;-inkscape-font-specification:Sans"
       d="m 123.02203,779.15625 a 16.0016,16.0016 0 0 0 -13.6875,8.90625 L 83.240778,838.90625 A 16.0016,16.0016 0 1 0 111.70953,853.5 l 26.09375,-50.84375 a 16.0016,16.0016 0 0 0 -14.78125,-23.5 z"
       id="path2996"
       inkscape:connector-curvature="0" />
    <path
       style="font-size:medium;font-style:normal;font-variant:normal;font-weight:normal;font-stretch:normal;text-indent:0;text-align:start;text-decoration:none;line-height:normal;letter-spacing:normal;word-spacing:normal;text-transform:none;direction:ltr;block-progression:tb;writing-mode:lr-tb;text-anchor:start;baseline-shift:baseline;color:#000000;fill:#ffffff;fill-opacity:1;stroke:#000000;stroke-width:16;marker:none;visibility:visible;display:inline;overflow:visible;enable-background:accumulate;font-family:Sans;-inkscape-font-specification:Sans;stroke-opacity:1;stroke-miterlimit:4;stroke-dasharray:none"
       d="m 230.3125,868.01843 a 16.0016,16.0016 0 0 0 -9.875,3.5625 l -46.65625,36.8125 a 16.0016,16.0016 0 1 0 19.8125,25.125 L 240.25,896.70593 a 16.0016,16.0016 0 0 0 -9.9375,-28.6875 z"
       id="path3000"
       inkscape:connector-curvature="0" />
    <path
       style="font-size:medium;font-style:normal;font-variant:normal;font-weight:normal;font-stretch:normal;text-indent:0;text-align:start;text-decoration:none;line-height:normal;letter-spacing:normal;word-spacing:normal;text-transform:none;direction:ltr;block-progression:tb;writing-mode:lr-tb;text-anchor:start;baseline-shift:baseline;color:#000000;fill:#ffffff;fill-opacity:1;stroke:#000000;stroke-width:16;marker:none;visibility:visible;display:inline;overflow:visible;enable-background:accumulate;font-family:Sans;-inkscape-font-specification:Sans;stroke-opacity:1;stroke-miterlimit:4;stroke-dasharray:none"
       d="m 99.78125,886.11218 a 16.0016,16.0016 0 0 0 -7.46875,30.1875 l 48.25,25.90625 a 16.00193,16.00193 0 1 0 15.15625,-28.1875 L 107.4375,888.11218 a 16.0016,16.0016 0 0 0 -7.65625,-2 z"
       id="path3002"
       inkscape:connector-curvature="0" />
    <g
       id="g3809"
       transform="matrix(0.21350845,0.97694122,-0.97694122,0.21350845,1026.6585,501.72336)">
      <path
         sodipodi:nodetypes="czzczzc"
         inkscape:connector-curvature="0"
         id="path3022"
         d="m 171.72346,831.97109 c 0,0 -11.98404,-11.17042 -29.73625,-11.17042 -17.75221,0 -29.73626,8.78724 -29.73626,39.35438 0,30.56714 59.47251,39.28267 59.47251,39.28267 0,0 59.47252,-9.16644 59.47252,-39.28267 0,-30.11623 -14.89052,-39.61714 -29.73626,-39.35438 -14.84574,0.26276 -29.73626,11.17042 -29.73626,11.17042 z"
         style="fill:#ffffff;fill-opacity:1;stroke:#000000;stroke-width:16;stroke-linecap:butt;stroke-linejoin:miter;stroke-miterlimit:4;stroke-opacity:1;stroke-dasharray:none" />
      <g
         transform="translate(-1.291975,0)"
         id="g3805">
        <path
           style="fill:#000000;fill-opacity:1;stroke:none"
           d="m 190.76716,852.55484 -0.26276,20.23288 c 0,0 10.02245,1.89654 16.17383,-7.98855 5.38945,-8.66068 1.98455,-17.49962 -4.20423,-17.49962 -6.18878,0 -11.70684,5.25529 -11.70684,5.25529 z"
           id="path3785"
           inkscape:connector-curvature="0"
           sodipodi:nodetypes="ccssc" />
        <path
           style="fill:#000000;fill-opacity:1;stroke:none"
           d="m 155.26372,852.55484 0.26276,20.23288 c 0,0 -10.02245,1.89654 -16.17383,-7.98855 -5.38945,-8.66068 -1.98455,-17.49962 4.20423,-17.49962 6.18878,0 11.70684,5.25529 11.70684,5.25529 z"
           id="path3785-7"
           inkscape:connector-curvature="0"
           sodipodi:nodetypes="ccssc" />
      </g>
    </g>
    <path
       style="font-size:medium;font-style:normal;font-variant:normal;font-weight:normal;font-stretch:normal;text-indent:0;text-align:start;text-decoration:none;line-height:normal;letter-spacing:normal;word-spacing:normal;text-transform:none;direction:ltr;block-progression:tb;writing-mode:lr-tb;text-anchor:start;baseline-shift:baseline;color:#000000;fill:#ffffff;fill-opacity:1;stroke:#000000;stroke-width:16;marker:none;visibility:visible;display:inline;overflow:visible;enable-background:accumulate;font-family:Sans;-inkscape-font-specification:Sans;stroke-opacity:1;stroke-miterlimit:4;stroke-dasharray:none"
       d="M 291.03125 195.875 A 16.0016 16.0016 0 0 0 288.8125 227.6875 L 319.5 232.9375 C 318.58496 237.45438 317.23107 241.67952 315.5625 245.65625 L 298.3125 236.59375 A 16.0016 16.0016 0 0 0 290.65625 234.65625 A 16.0016 16.0016 0 0 0 283.46875 264.9375 L 296.21875 271.625 C 285.7861 280.35807 273.42559 285.81557 261.90625 287.90625 A 16.0016 16.0016 0 1 0 267.59375 319.375 C 288.15611 315.64307 309.75725 304.7787 326.09375 287.3125 L 341.84375 295.5625 A 16.0016 16.0016 0 1 0 356.6875 267.21875 L 344.03125 260.5625 C 347.12678 253.71974 349.50628 246.31714 351.03125 238.375 L 377.6875 242.9375 A 16.0016 16.0016 0 1 0 383.09375 211.40625 L 294.21875 196.125 A 16.0016 16.0016 0 0 0 291.03125 195.875 z "
       transform="translate(0,540.36218)"
       id="path7" />
    <path
       style="font-size:medium;font-style:normal;font-variant:normal;font-weight:normal;font-stretch:normal;text-indent:0;text-align:start;text-decoration:none;line-height:normal;letter-spacing:normal;word-spacing:normal;text-transform:none;direction:ltr;block-progression:tb;writing-mode:lr-tb;text-anchor:start;baseline-shift:baseline;color:#000000;fill:#ffffff;fill-opacity:1;stroke:#000000;stroke-width:16;marker:none;visibility:visible;display:inline;overflow:visible;enable-background:accumulate;font-family:Sans;-inkscape-font-specification:Sans;stroke-opacity:1;stroke-miterlimit:4;stroke-dasharray:none"
       d="m 408.875,768.90625 a 16.0016,16.0016 0 0 0 -15.75,17.71875 l 3.625,38.34375 a 16.009404,16.009404 0 1 0 31.875,-3.03125 L 424.96875,783.625 A 16.0016,16.0016 0 0 0 408.875,768.90625 z"
       id="path3008"
       inkscape:connector-curvature="0" />
    <path
       style="font-size:medium;font-style:normal;font-variant:normal;font-weight:normal;font-stretch:normal;text-indent:0;text-align:start;text-decoration:none;line-height:normal;letter-spacing:normal;word-spacing:normal;text-transform:none;direction:ltr;block-progression:tb;writing-mode:lr-tb;text-anchor:start;baseline-shift:baseline;color:#000000;fill:#000000;fill-opacity:1;stroke:none;stroke-width:16;marker:none;visibility:visible;display:inline;overflow:visible;enable-background:accumulate;font-family:Sans;-inkscape-font-specification:Sans"
       d="m 433.875,895.53125 c -14.63119,0.56193 -23.47823,11.51 -27.46875,20.59375 -3.99052,9.08375 -4.59375,17.71875 -4.59375,17.71875 l -0.0625,0.625 0.0625,0.625 6.34375,86.15625 a 8.0008,8.0008 0 1 0 15.9375,-1.1562 L 417.8125,934.75 c 0.0565,-0.56281 0.66163,-6.32676 3.25,-12.21875 2.71691,-6.18459 6.0679,-10.71696 13.4375,-11 9.82832,-0.37747 14.57218,1.56815 16.875,3.78125 2.30282,2.2131 3.64387,5.98047 3.5,12.96875 a 8.0015257,8.0015257 0 1 0 16,0.3125 c 0.1924,-9.34538 -1.77825,-18.44273 -8.40625,-24.8125 -6.628,-6.36977 -16.42128,-8.7175 -28.59375,-8.25 z"
       id="path3012"
       inkscape:connector-curvature="0" />
    <path
       style="font-size:medium;font-style:normal;font-variant:normal;font-weight:normal;font-stretch:normal;text-indent:0;text-align:start;text-decoration:none;line-height:normal;letter-spacing:normal;word-spacing:normal;text-transform:none;direction:ltr;block-progression:tb;writing-mode:lr-tb;text-anchor:start;baseline-shift:baseline;color:#000000;fill:#ffffff;fill-opacity:1;stroke:#000000;stroke-width:16;stroke-miterlimit:4;stroke-opacity:1;stroke-dasharray:none;marker:none;visibility:visible;display:inline;overflow:visible;enable-background:accumulate;font-family:Sans;-inkscape-font-specification:Sans"
       d="m 243.409,678.73503 a 16.0016,16.0016 0 0 0 -17.31957,25.35058 l 23.38132,29.4691 a 16.0016,16.0016 0 1 0 25.04519,-19.87849 l -23.38132,-29.46911 a 16.0016,16.0016 0 0 0 -7.72562,-5.47208 z"
       id="path3016"
       inkscape:connector-curvature="0" />
    <g
       id="g3854"
       transform="matrix(0.99236518,0.12333427,-0.12333427,0.99236518,67.742915,-37.011154)">
      <path
         transform="translate(0,540.36218)"
         id="path3024"
         d="m 370.90625,21.59375 c -59.55875,0 -75.71875,27.99106 -75.71875,80.96875 0,52.97769 33.84375,64.9375 33.84375,64.9375 0,0 2.29221,15.53125 10.46875,15.53125 8.17654,0 10.46875,-15.53125 10.46875,-15.53125 0,0 -1.3512,15.53125 10.46875,15.53125 10.07862,0 10.5711,-11.20383 10.5,-14.53125 0.21384,3.27299 1.63318,14.1283 11.15625,14.53125 C 393.29693,183.50531 393.3125,167.5 393.3125,167.5 c 0,0 2.95071,15.53125 11.1875,15.53125 8.23679,0 11.21875,-15.53125 11.21875,-15.53125 0,0 30.90625,-5.73153 30.90625,-64.9375 0,-59.20597 -16.16,-80.96875 -75.71875,-80.96875 z M 342.6875,93.1875 c 10.55851,0 15.6875,5.2283 15.6875,14.46875 0,9.24045 -12.68884,31.75 -25.46875,31.75 -12.77991,0 -11.375,-22.87293 -11.375,-32.125 0,-9.25206 10.59774,-14.09375 21.15625,-14.09375 z m 56.40625,0 c 10.55851,0 21.15625,4.84169 21.15625,14.09375 0,9.25207 1.43616,32.125 -11.34375,32.125 -12.77991,0 -25.46875,-22.50955 -25.46875,-31.75 0,-9.24045 5.09774,-14.46875 15.65625,-14.46875 z"
         style="fill:#ffffff;fill-opacity:1;stroke:#000000;stroke-width:16;stroke-linecap:butt;stroke-linejoin:miter;stroke-miterlimit:4;stroke-opacity:1;stroke-dasharray:none"
         inkscape:connector-curvature="0" />
      <path
         sodipodi:nodetypes="czzczzc"
         inkscape:connector-curvature="0"
         id="path3844"
         d="m 371.12791,674.38767 c 0,0 -8.65238,4.91012 -8.65238,8.9043 0,3.99418 0.91141,5.48512 4.24755,5.48512 3.33614,0 4.40483,-2.35574 4.40483,-2.35574 0,0 0.16911,2.35574 3.49325,2.35574 3.32409,0 4.70152,-1.89325 4.70152,-5.48512 0,-3.59187 -8.19477,-8.9043 -8.19477,-8.9043 z"
         style="fill:#000000;fill-opacity:1;stroke:none" />
    </g>
    <path
       style="font-size:medium;font-style:normal;font-variant:normal;font-weight:normal;font-stretch:normal;text-indent:0;text-align:start;text-decoration:none;line-height:normal;letter-spacing:normal;word-spacing:normal;text-transform:none;direction:ltr;block-progression:tb;writing-mode:lr-tb;text-anchor:start;baseline-shift:baseline;color:#000000;fill:#ffffff;fill-opacity:1;stroke:#000000;stroke-width:16;stroke-miterlimit:4;stroke-opacity:1;stroke-dasharray:none;marker:none;visibility:visible;display:inline;overflow:visible;enable-background:accumulate;font-family:Sans;-inkscape-font-specification:Sans"
       d="m 418.43378,838.40438 a 16.0016,16.0016 0 0 0 -15.75001,17.71875 l 3.62501,38.34375 a 16.009404,16.009404 0 1 0 31.875,-3.03125 l -3.65625,-38.3125 a 16.0016,16.0016 0 0 0 -16.09375,-14.71875 z"
       id="path3008-9"
       inkscape:connector-curvature="0" />
    <path
       style="font-size:medium;font-style:normal;font-variant:normal;font-weight:normal;font-stretch:normal;text-indent:0;text-align:start;text-decoration:none;line-height:normal;letter-spacing:normal;word-spacing:normal;text-transform:none;direction:ltr;block-progression:tb;writing-mode:lr-tb;text-anchor:start;baseline-shift:baseline;color:#000000;fill:#ffffff;fill-opacity:1;stroke:#000000;stroke-width:16;stroke-miterlimit:4;stroke-opacity:1;stroke-dasharray:none;marker:none;visibility:visible;display:inline;overflow:visible;enable-background:accumulate;font-family:Sans;-inkscape-font-specification:Sans"
       d="m 234.45657,608.41883 a 16.0016,16.0016 0 0 0 -28.07275,12.43143 l 4.35974,37.36451 a 16.0016,16.0016 0 1 0 31.75912,-3.71136 l -4.35973,-37.36452 a 16.0016,16.0016 0 0 0 -3.68638,-8.72006 z"
       id="path3016-3"
       inkscape:connector-curvature="0" />
  </g>
</svg>
