<?xml version="1.0" encoding="UTF-8" standalone="no"?>
<!-- Created with Inkscape (http://www.inkscape.org/) -->

<svg
   xmlns:dc="http://purl.org/dc/elements/1.1/"
   xmlns:cc="http://creativecommons.org/ns#"
   xmlns:rdf="http://www.w3.org/1999/02/22-rdf-syntax-ns#"
   xmlns:svg="http://www.w3.org/2000/svg"
   xmlns="http://www.w3.org/2000/svg"
   xmlns:sodipodi="http://sodipodi.sourceforge.net/DTD/sodipodi-0.dtd"
   xmlns:inkscape="http://www.inkscape.org/namespaces/inkscape"
   width="512"
   height="512"
   id="svg2"
   version="1.1"
   inkscape:version="0.48.2 r9819"
   sodipodi:docname="ic_launcher.svg">
  <defs
     id="defs4" />
  <sodipodi:namedview
     id="base"
     pagecolor="#c0c0c0"
     bordercolor="#666666"
     borderopacity="1.0"
     inkscape:pageopacity="1"
     inkscape:pageshadow="2"
     inkscape:zoom="1.2351213"
     inkscape:cx="307.65799"
     inkscape:cy="266.55326"
     inkscape:document-units="px"
     inkscape:current-layer="layer1"
     showgrid="false"
     inkscape:window-width="1231"
     inkscape:window-height="845"
     inkscape:window-x="0"
     inkscape:window-y="0"
     inkscape:window-maximized="0"
     showguides="true"
     inkscape:guide-bbox="true"
     inkscape:snap-bbox="true"
     inkscape:bbox-paths="true"
     inkscape:bbox-nodes="true"
     inkscape:snap-bbox-edge-midpoints="true"
     inkscape:snap-bbox-midpoints="true"
     inkscape:object-paths="true"
     inkscape:snap-intersection-paths="true"
     inkscape:object-nodes="true"
     inkscape:snap-smooth-nodes="true"
     inkscape:snap-midpoints="true"
     inkscape:snap-object-midpoints="true"
     inkscape:snap-center="true"
     inkscape:snap-page="true"
     inkscape:snap-global="false" />
  <metadata
     id="metadata7">
    <rdf:RDF>
      <cc:Work
         rdf:about="">
        <dc:format>image/svg+xml</dc:format>
        <dc:type
           rdf:resource="http://purl.org/dc/dcmitype/StillImage" />
        <dc:title />
      </cc:Work>
    </rdf:RDF>
  </metadata>
  <g
     inkscape:label="Layer 1"
     inkscape:groupmode="layer"
     id="layer1"
     transform="translate(0,-540.36218)">
    <path
       style="fill:#ffffff;fill-opacity:1;stroke:none"
       d="m 157.22415,564.11857 c -30.63343,0.25534 -56.81441,28.93115 -54.9375,59.375 0.51676,15.51984 7.81916,30.8081 20.1875,40.28125 -6.53358,6.64566 -5.78839,17.49195 -13.3015,23.26769 -11.479949,12.61457 -24.613779,26.13951 -26.979749,43.76356 0.69758,17.61635 16.19596,29.00295 25.156249,42.65625 5.11784,5.75958 14.25186,11.98256 10.46875,20.96875 -4.12994,14.15746 -9.63994,28.30117 -16.46875,41.25 -7.060919,13.03178 -18.069999,23.58929 -31.312499,30.28125 -17.85424,12.30993 -23.38774,34.53238 -32.375,53.125 -4.6362,9.6593 -13.04267,16.0377 -20.727048,22.9995 -10.5000404,10.6297 -16.41825039,27.9603 -8.5229504,41.813 6.3404904,11.6423 18.2926784,18.68748 25.5937484,29.65618 13.63903,14.9556 37.08823,18.6928 55.59375,11.6563 7.98442,-3.1393 14.730129,-9.5177 17.562499,-17.6875 12.00895,12.6145 31.49479,16.5272 48.25433,13.3633 10.45494,-2.6489 20.22074,-10.4209 23.18317,-21.14448 11.53191,6.98728 25.62228,8.73118 38.78125,6.84368 22.37918,4.508 45.65268,-17.75958 40.30514,-40.44778 -0.68369,-5.8641 -2.50841,-14.6912 2.69486,-18.6147 4.13735,-0.4962 3.77139,4.8814 6.1875,7.375 12.09305,19.8497 38.69209,32.1137 61.0625,22.7188 16.10366,-7.8207 21.78255,-29.893 12.0625,-44.75 -4.1023,-8.0194 -12.54357,-15.2148 -11.1875,-24.87505 2.19049,-3.82696 5.39242,-6.89436 8.53125,-9.9375 0.45901,12.96023 7.546,25.15755 17.875,32.62495 12.31064,19.3057 36.06149,33.6897 59.4375,27.875 19.90148,-5.395 28.76731,-33.0248 15.45779,-48.85043 -3.98997,-5.09841 -9.85848,-13.01267 -4.36404,-19.08702 9.09275,-13.40302 24.32938,-20.0923 35.79818,-31.15446 18.32693,-13.71992 39.47168,-28.69141 44.76432,-52.37679 4.95669,-19.94644 -5.42625,-44.68474 -26.53851,-49.67152 -16.649,-5.53754 -34.33354,-5.3196 -51.39899,-8.82848 1.03194,-2.60209 -0.0279,-6.9735 1.40625,-8.65625 12.69312,4.06208 29.61819,3.29779 37.375,-9.03125 15.06376,-20.66368 21.00204,-46.19292 33.5,-68.21875 5.44746,-11.36075 7.35759,-27.22677 -3.09375,-36.34375 -18.94157,-18.26061 -55.02504,-15.30215 -68.71875,7.96875 -4.98507,7.35273 -5.9201,16.57216 -5,25.15625 -0.49924,3.49486 -3.87214,-2.10998 -5.6875,-2.0625 -4.20592,-1.21437 1.59996,-4.37277 2.0625,-6.8125 14.11116,-22.84928 10.19988,-56.37209 -11.75,-72.8125 -20.04994,-17.17988 -52.84327,-18.84784 -73.09375,-1 -6.97002,5.74809 -12.64101,13.11631 -16.46875,21.34375 -12.38236,-29.32413 -51.27036,-42.74349 -79.375,-27.84375 -11.56156,5.89789 -21.24357,16.0809 -26.4375,28.0625 -9.21928,-21.37915 -32.53071,-35.07477 -55.5625,-34.21875 z m 55.21875,78.90625 c 3.45157,8.23241 9.16,15.44973 16.0625,21.03125 -3.26649,5.22508 -8.84724,9.63394 -13.90625,11.53125 -2.6307,-6.48381 -7.42323,-11.74955 -11.90625,-16.96875 4.08467,-4.60213 7.36341,-10.11833 9.75,-15.59375 z m 105.84375,1.1875 c 3.40119,7.05683 9.11865,13.38561 14.25,18.78125 -5.66134,1.25692 -11.50822,2.41103 -16.875,4.3125 -1.07009,-3.69438 -5.46778,-5.6097 -7.125,-8.625 4.01643,-4.41129 7.12874,-9.59299 9.5,-15 l 0.25,0.53125 z"
       id="path3116-9-7-3"
       inkscape:connector-curvature="0" />
    <g
       id="g3014"
       transform="translate(0.12679873,-10.329572)">
      <g
         id="g3802">
        <path
           style="fill:#0080ff;fill-opacity:1;stroke:#000000;stroke-width:12;stroke-linecap:butt;stroke-linejoin:miter;stroke-miterlimit:4;stroke-opacity:1;stroke-dasharray:none"
           d="m 174.0898,693.67768 c -5.59399,-2.80782 -18.96129,-2.28104 -22.9348,12.63459 -3.97352,14.91562 -5.21066,49.66594 -3.98126,55.23806 1.22937,5.5721 62.44551,19.27057 66.3534,20.87815 3.90791,1.60759 9.73123,3.66534 16.54888,3.43007 6.81765,-0.23528 7.12618,-16.91164 6.26666,-22.41627 -0.98878,-6.33239 -3.99338,-11.69151 -12.39726,-16.30364 -10.48348,-5.56409 -19.25777,7.42302 -35.62575,-6.53923 -2.41523,-2.33506 -8.23946,-11.85855 -0.97083,-25.0809 7.26863,-13.22235 -7.66503,-19.033 -13.25904,-21.84083 z"
           id="path3116-9-7"
           inkscape:connector-curvature="0"
           sodipodi:nodetypes="zsssssccsz" />
        <path
           style="fill:#0080ff;fill-opacity:1;stroke:#000000;stroke-width:12;stroke-linecap:butt;stroke-linejoin:round;stroke-miterlimit:4;stroke-opacity:1;stroke-dasharray:none"
           d="m 140.35422,800.0338 c -19.29503,65.45851 -32.65242,70.3276 -37.47618,77.3411 -4.823757,7.0134 -12.694384,8.36974 -22.3419,16.16244 -9.647515,7.7927 -16.079192,23.72447 -23.314828,41.64767 -7.235637,17.9232 -13.283057,19.30803 -20.518694,26.32143 -7.235636,7.0135 -12.017427,11.05724 -11.811659,19.21196 0.188198,7.45842 10.618647,13.95138 15.293423,18.36966 2.337388,2.20924 8.858669,13.02114 12.326055,15.00004 11.645457,6.6466 33.286408,6.3191 35.578149,-1.7664 3.858244,-13.61234 -4.203028,-14.48251 -6.334031,-20.10323 -3.642072,-9.60635 -9.840192,-15.70155 -9.712975,-18.81863 0.254221,-6.22891 43.43788,-60.26795 49.86956,-63.385 6.43168,-3.11705 36.4101,-39.9893 42.98844,-48.75891 6.57834,-8.76961 33.66354,-42.84373 25.16432,-59.19093 -8.49922,-16.3472 -49.70968,-2.0312 -49.70968,-2.0312 z"
           id="path3114"
           inkscape:connector-curvature="0"
           sodipodi:nodetypes="csssssssssszzzc" />
        <path
           sodipodi:type="arc"
           style="fill:#0080ff;fill-opacity:1;fill-rule:evenodd;stroke:#000000;stroke-width:17.03956413;stroke-miterlimit:4;stroke-opacity:1;stroke-dasharray:none"
           id="path3110"
           sodipodi:cx="119.10244"
           sodipodi:cy="89.636734"
           sodipodi:rx="53.045624"
           sodipodi:ry="52.044762"
           d="m 172.14806,89.636734 c 0,28.743526 -23.74933,52.044766 -53.04562,52.044766 -29.296289,0 -53.045624,-23.30124 -53.045624,-52.044766 0,-28.743528 23.749335,-52.044762 53.045624,-52.044762 29.29629,0 53.04562,23.301234 53.04562,52.044762 z"
           transform="matrix(0.70475413,0,0,0.70373299,75.876738,568.17142)" />
        <path
           style="fill:#0080ff;fill-opacity:1;stroke:#000000;stroke-width:12;stroke-linecap:butt;stroke-linejoin:miter;stroke-miterlimit:4;stroke-opacity:1;stroke-dasharray:none"
           d="m 174.64574,676.72792 c -11.25544,-0.77927 -43.41382,0.77927 -39.39402,22.59878 4.01979,21.81952 10.78397,40.52197 12.39189,54.54879 1.60793,14.02684 -2.74438,4.67562 -7.56814,35.06709 -4.82375,30.39146 8.0396,34.28781 28.94255,41.30122 20.90295,7.01342 44.48745,19.86352 45.29141,25.3184 0.80396,5.45488 -19.04392,12.19902 -22.25977,24.66732 -3.21583,12.4683 -10.66055,38.45587 -21.11203,47.80707 -10.45147,9.3512 -19.82075,10.68625 -21.07155,23.96912 -1.42339,15.11572 17.40592,13.68882 20.49026,15.48956 3.08433,1.80073 4.50984,14.5888 9.18684,18.08404 4.67701,3.49523 18.91809,16.15549 30.81404,11.23038 16.71942,-6.9221 -1.14465,-25.14554 -5.12147,-33.63216 -4.24724,-9.06371 -7.66314,-21.88918 -0.4275,-30.46118 7.23563,-8.5719 38.72184,-60.50783 46.76144,-70.63831 8.0396,-10.13048 8.67459,-25.94653 -0.16897,-32.95995 -8.84355,-7.01341 -58.17112,-52.44208 -58.17112,-52.44208 0,0 8.45372,-38.64678 7.64976,-62.8041 -0.80396,-24.15732 -14.97818,-36.36472 -26.23362,-37.14399 z"
           id="path3112"
           inkscape:connector-curvature="0"
           sodipodi:nodetypes="zsssssssszzssssscsz" />
        <path
           style="fill:#0080ff;fill-opacity:1;stroke:#000000;stroke-width:12;stroke-linecap:butt;stroke-linejoin:miter;stroke-miterlimit:4;stroke-opacity:1;stroke-dasharray:none"
           d="m 162.97973,700.41008 c -2.92545,-5.53338 -14.11629,-12.86328 -26.00951,-3.02377 -11.89322,9.8395 -33.07097,37.41881 -35.30413,42.6698 -2.233161,5.25097 39.66441,51.93778 41.91353,55.51512 2.24913,3.57736 5.7967,8.63306 11.48491,12.39869 5.68822,3.76562 15.61902,-9.63495 18.11419,-14.6163 2.87038,-5.73042 3.53434,-11.83837 -0.63194,-20.47197 -5.30716,-10.61586 -19.9903,-5.13329 -25.21465,-26.0034 -0.61138,-3.30334 0.17369,-14.43897 13.76731,-20.98703 13.59362,-6.54806 4.80576,-19.94774 1.88029,-25.48114 z"
           id="path3116-9"
           inkscape:connector-curvature="0"
           sodipodi:nodetypes="zsssssccsz" />
      </g>
      <g
         transform="translate(0,11.23058)"
         id="g3814">
        <path
           style="fill:#80c0ff;fill-opacity:1;stroke:#000000;stroke-width:12;stroke-linecap:butt;stroke-linejoin:miter;stroke-miterlimit:4;stroke-opacity:1;stroke-dasharray:none"
           d="m 285.05968,693.35953 c -5.43727,3.10042 -12.40651,14.51937 -2.19268,26.09272 10.21382,11.57335 38.45455,31.8607 43.7741,33.92524 5.31952,2.06455 50.64628,-41.30074 54.15007,-43.66281 3.5038,-2.36209 8.44379,-6.0691 12.02607,-11.87452 3.58229,-5.80542 -10.1282,-15.30377 -15.18659,-17.63879 -5.81907,-2.68615 -11.94508,-3.15497 -20.44141,1.28455 -10.44119,5.64304 -4.4931,20.14386 -25.18596,26.03118 -3.28217,0.71643 -14.43717,0.28691 -21.41546,-13.09094 -6.97828,-13.37785 -20.09087,-4.1671 -25.52814,-1.06663 z"
           id="path3116-9-7-39"
           inkscape:connector-curvature="0"
           sodipodi:nodetypes="zsssssccsz" />
        <path
           style="fill:#80c0ff;fill-opacity:1;stroke:#000000;stroke-width:12;stroke-linecap:butt;stroke-linejoin:round;stroke-miterlimit:4;stroke-opacity:1;stroke-dasharray:none"
           d="m 238.97057,786.48758 c -25.18471,63.4259 -38.9305,67.05645 -44.37382,73.60077 -5.4433,6.54422 -13.40483,7.17707 -23.72287,14.05739 -10.31803,6.88033 -18.17595,22.15911 -27.0161,39.34769 -8.84015,17.18858 -14.98867,18.01608 -22.83381,24.34033 -7.84514,6.32435 -12.9758,9.91511 -13.51464,18.05462 -0.49282,7.4445 4.70139,16.26965 8.9537,21.0959 2.12616,2.41315 2.96444,15.12487 6.2369,17.41167 10.99072,7.68115 32.57135,9.32875 35.59096,1.4859 5.08367,-13.20363 -5.87438,-14.41978 -7.48386,-20.21143 -2.75075,-9.89849 2.48351,-19.60494 4.32389,-22.76977 3.13386,-5.38913 48.75354,-56.05504 55.4427,-58.5725 6.68916,-2.51746 39.90554,-36.50188 47.2563,-44.63497 7.35075,-8.13307 37.43077,-39.5949 30.4579,-56.64913 -6.97286,-17.05424 -49.31725,-6.55647 -49.31725,-6.55647 z"
           id="path3114-0"
           inkscape:connector-curvature="0"
           sodipodi:nodetypes="csssssssssszzzc" />
        <path
           sodipodi:type="arc"
           style="fill:#80c0ff;fill-opacity:1;fill-rule:evenodd;stroke:#000000;stroke-width:17.03956413;stroke-miterlimit:4;stroke-opacity:1;stroke-dasharray:none"
           id="path3110-5"
           sodipodi:cx="119.10244"
           sodipodi:cy="89.636734"
           sodipodi:rx="53.045624"
           sodipodi:ry="52.044762"
           d="m 172.14806,89.636734 c 0,28.743526 -23.74933,52.044766 -53.04562,52.044766 -29.296289,0 -53.045624,-23.30124 -53.045624,-52.044766 0,-28.743528 23.749335,-52.044762 53.045624,-52.044762 29.29629,0 53.04562,23.301234 53.04562,52.044762 z"
           transform="matrix(0.70475413,0,0,0.70373299,181.73972,556.94084)" />
        <path
           style="fill:#80c0ff;fill-opacity:1;stroke:#000000;stroke-width:12;stroke-linecap:butt;stroke-linejoin:round;stroke-miterlimit:4;stroke-opacity:1;stroke-dasharray:none"
           d="m 280.50872,665.49734 c -11.25544,-0.77927 -43.41382,0.77927 -39.39402,22.59878 4.01979,21.81952 10.78397,40.52197 12.39189,54.54879 1.60793,14.02684 -2.74438,4.67562 -7.56814,35.06709 -4.82375,30.39146 8.0396,34.28781 28.94255,41.30122 20.90295,7.01342 51.36368,7.10157 51.36368,7.10157 0,0 -21.47283,3.29301 -24.68868,15.76131 -3.21583,12.4683 -13.08946,39.2655 -23.54094,48.6167 -10.45147,9.3512 -19.82075,10.68625 -21.07155,23.96912 -1.42339,15.11572 17.40592,13.68882 20.49026,15.48956 3.08433,1.80073 4.50984,14.5888 9.18684,18.08404 4.67701,3.49523 18.91809,16.15548 30.81404,11.23038 16.71942,-6.9221 -1.14465,-25.14554 -5.12147,-33.63216 -4.24724,-9.06371 -7.66314,-21.88918 -0.4275,-30.46118 7.23563,-8.5719 49.24712,-51.60182 57.28672,-61.7323 8.0396,-10.13048 9.48423,-30.80435 0.64067,-37.81777 -8.84355,-7.01341 -70.72049,-30.17706 -70.72049,-30.17706 0,0 8.45372,-38.64678 7.64976,-62.8041 -0.80396,-24.15732 -14.97818,-36.36472 -26.23362,-37.14399 z"
           id="path3112-22"
           inkscape:connector-curvature="0"
           sodipodi:nodetypes="zsssscssszzssssscsz" />
        <path
           style="fill:#80c0ff;fill-opacity:1;stroke:#000000;stroke-width:12;stroke-linecap:butt;stroke-linejoin:miter;stroke-miterlimit:4;stroke-opacity:1;stroke-dasharray:none"
           d="m 274.28158,689.79074 c -0.97059,-6.1834 -9.17562,-16.74938 -23.61903,-11.30396 -14.4434,5.44542 -43.42765,24.65553 -47.24458,28.89711 -3.81692,4.24155 20.6544,62.00157 21.62032,66.11532 0.96592,4.11376 2.68,10.04733 6.83759,15.45567 4.15761,5.40833 17.90099,-4.04237 21.87821,-7.94384 4.57527,-4.48816 7.18621,-10.04972 6.04849,-19.56826 -1.57326,-11.76381 -17.241,-11.34507 -15.4069,-32.78082 0.49416,-3.32291 4.85188,-13.60049 19.83502,-15.38072 14.98314,-1.78021 11.02148,-17.30706 10.05088,-23.4905 z"
           id="path3116-9-73"
           inkscape:connector-curvature="0"
           sodipodi:nodetypes="zsssssccsz" />
      </g>
      <g
         transform="translate(-84.654456,2.87291)"
         id="g3838">
        <path
           style="fill:#ffffff;fill-opacity:1;stroke:#000000;stroke-width:12;stroke-linecap:butt;stroke-linejoin:miter;stroke-miterlimit:4;stroke-opacity:1;stroke-dasharray:none"
           d="m 469.94893,692.44123 c -3.6683,5.0715 -5.29121,18.35038 8.79452,24.66362 14.08572,6.31324 48.18829,13.10518 53.88542,12.78494 5.69711,-0.32022 29.03194,-58.54864 31.2452,-62.14828 2.21327,-3.59966 5.17794,-9.01778 6.03864,-15.78497 0.8607,-6.7672 -15.55052,-9.74512 -21.12173,-9.77915 -6.40902,-0.0391 -12.1805,2.06747 -18.0802,9.6233 -7.17273,9.45592 4.23983,20.19868 -12.16578,34.11669 -2.69206,2.00967 -13.02606,6.23186 -24.91217,-3.06243 -11.88611,-9.29428 -20.01563,4.51474 -23.6839,9.58628 z"
           id="path3116-9-7-39-9"
           inkscape:connector-curvature="0"
           sodipodi:nodetypes="zsssssccsz" />
        <path
           style="fill:#ffffff;fill-opacity:1;stroke:#000000;stroke-width:12;stroke-linecap:butt;stroke-linejoin:round;stroke-miterlimit:4;stroke-opacity:1;stroke-dasharray:none"
           d="m 435.53988,790.38147 c -33.97857,59.18252 -48.10179,60.81422 -54.42334,66.51473 -6.32153,5.70041 -14.29188,5.19057 -25.48621,10.52796 -11.19432,5.33739 -21.15228,19.33836 -32.35496,35.08941 -11.20268,15.75104 -17.40636,15.69261 -26.07375,20.83253 -8.6674,5.14002 -14.25799,7.96181 -15.95292,15.94111 -1.5502,7.29797 2.33139,16.77406 5.85141,22.15777 7.43572,22.5461 8.14033,32.70645 20.8908,32.7698 20.08543,-0.12159 14.05564,-23.20685 13.28917,-29.16891 -1.30996,-10.18973 5.25595,-19.04984 7.52915,-21.91963 3.87088,-4.88673 56.25425,-48.52355 63.23421,-50.06062 6.97996,-1.53707 44.70633,-30.43325 53.14254,-37.43405 8.4362,-7.00078 42.69831,-33.8478 38.23066,-51.72258 -4.46764,-17.87478 -47.87676,-13.52752 -47.87676,-13.52752 z"
           id="path3114-0-3"
           inkscape:connector-curvature="0"
           sodipodi:nodetypes="csssssccsszzzc" />
        <path
           sodipodi:type="arc"
           style="fill:#ffffff;fill-opacity:1;fill-rule:evenodd;stroke:#000000;stroke-width:17.03956413;stroke-miterlimit:4;stroke-opacity:1;stroke-dasharray:none"
           id="path3110-5-8"
           sodipodi:cx="119.10244"
           sodipodi:cy="89.636734"
           sodipodi:rx="53.045624"
           sodipodi:ry="52.044762"
           d="m 172.14806,89.636734 c 0,28.743526 -23.74933,52.044766 -53.04562,52.044766 -29.296289,0 -53.045624,-23.30124 -53.045624,-52.044766 0,-28.743528 23.749335,-52.044762 53.045624,-52.044762 29.29629,0 53.04562,23.301234 53.04562,52.044762 z"
           transform="matrix(0.70475413,0,0,0.70373299,371.74059,565.29851)" />
        <path
           style="fill:#ffffff;fill-opacity:1;stroke:#000000;stroke-width:12;stroke-linecap:butt;stroke-linejoin:round;stroke-miterlimit:4;stroke-opacity:1;stroke-dasharray:none"
           d="m 470.50959,673.85501 c -11.25544,-0.77927 -43.41382,0.77927 -39.39402,22.59878 4.01979,21.81952 10.78397,40.52197 12.39189,54.54879 1.60793,14.02684 -2.74438,4.67562 -7.56814,35.06709 -4.82375,30.39146 8.0396,34.28781 28.94255,41.30122 20.90295,7.01342 57.03114,-9.90081 57.03114,-9.90081 0,0 -26.33065,4.91228 -29.5465,17.38058 -3.21583,12.4683 -18.75692,32.78841 -29.2084,42.13961 -10.45147,9.3512 -19.82075,10.68625 -21.07155,23.96912 -1.42339,15.11572 6.88064,18.54664 9.96498,20.34738 3.08433,1.80073 6.12911,10.54061 10.80611,14.03585 4.67701,3.49523 18.91809,16.15548 30.81404,11.23038 16.71942,-6.9221 -1.14465,-25.14554 -5.12147,-33.63216 -4.24724,-9.06371 1.24287,-22.69881 8.47851,-31.27081 7.23563,-8.5719 59.7724,-46.744 67.812,-56.87448 8.0396,-10.13048 9.48423,-30.80435 0.64067,-37.81777 -8.84355,-7.01341 -76.38795,-13.17468 -76.38795,-13.17468 0,0 8.45372,-38.64678 7.64976,-62.8041 -0.80396,-24.15732 -14.97818,-36.36472 -26.23362,-37.14399 z"
           id="path3112-22-0"
           inkscape:connector-curvature="0"
           sodipodi:nodetypes="zsssscssszzssssscsz" />
        <path
           style="fill:#ffffff;fill-opacity:1;stroke:#000000;stroke-width:12;stroke-linecap:butt;stroke-linejoin:miter;stroke-miterlimit:4;stroke-opacity:1;stroke-dasharray:none"
           d="m 458.89262,705.06065 c 0.93488,-6.1889 -3.71079,-18.73402 -19.12335,-17.88674 -15.41254,0.84728 -48.83371,10.44628 -53.74999,13.34285 -4.91626,2.89655 1.04196,65.34304 0.72535,69.5568 -0.31661,4.21376 -0.46728,10.38811 1.87037,16.79678 2.33766,6.40868 18.28775,1.53109 23.25456,-0.9929 5.71367,-2.90355 9.87701,-7.4218 11.656,-16.84158 2.03919,-11.69205 -13.0285,-16.0069 -4.8297,-35.89747 1.47107,-3.02025 8.71922,-11.5104 23.5437,-8.69993 14.82446,2.81048 15.71818,-13.18887 16.65306,-19.37781 z"
           id="path3116-9-73-2"
           inkscape:connector-curvature="0"
           sodipodi:nodetypes="zsssssccsz" />
      </g>
    </g>
  </g>
</svg>
